<svg xmlns="http://www.w3.org/2000/svg" viewBox="0 0 193.66 97.09"><defs><style>.cls-1{fill:none;stroke:#000;stroke-miterlimit:10;stroke-width:4px;}</style></defs><g id="Layer_2" data-name="Layer 2"><g id="Layer_1-2" data-name="Layer 1"><path d="M69.2,52.91q-7.71,0-12.61-6.68v5.85H52.53v-44h4.06V25.81q5.2-6.28,12.73-6.29a15.63,15.63,0,0,1,8.27,2.27,16.37,16.37,0,0,1,5.88,6.12,16.81,16.81,0,0,1,2.16,8.34,16.8,16.8,0,0,1-8.14,14.39A15.75,15.75,0,0,1,69.2,52.91ZM68.91,49a12.12,12.12,0,0,0,6.43-1.75,12.41,12.41,0,0,0,4.48-4.73,12.92,12.92,0,0,0,1.63-6.36,12.7,12.7,0,0,0-1.69-6.37A13.25,13.25,0,0,0,75.22,25a11.61,11.61,0,0,0-6.31-1.79,12.82,12.82,0,0,0-6.19,1.56,12,12,0,0,0-4.67,4.48A12.86,12.86,0,0,0,56.3,36,13.3,13.3,0,0,0,58,42.62a12.21,12.21,0,0,0,4.54,4.65A12.39,12.39,0,0,0,68.91,49Z"/><path d="M91,8.12v44H86.94v-44Z"/><path d="M108.63,52.85a15.46,15.46,0,0,1-8.25-2.27,16.65,16.65,0,0,1-5.86-6.1,16.87,16.87,0,0,1-2.14-8.34,16.38,16.38,0,0,1,2.18-8.29,16.75,16.75,0,0,1,5.94-6.06,15.71,15.71,0,0,1,8.25-2.27,15.1,15.1,0,0,1,7.11,1.69,15.62,15.62,0,0,1,5.56,4.95V20.37h4V52.08h-4V46.64a17.43,17.43,0,0,1-5.81,4.67A15.92,15.92,0,0,1,108.63,52.85Zm.41-3.69a12.77,12.77,0,0,0,6.21-1.58,12.08,12.08,0,0,0,4.69-4.48,12.71,12.71,0,0,0,1.77-6.73A12.82,12.82,0,0,0,120,29.81a12.38,12.38,0,0,0-10.91-6.33,12.07,12.07,0,0,0-6.42,1.77,12.38,12.38,0,0,0-4.52,4.68,13.16,13.16,0,0,0,0,12.69,13.05,13.05,0,0,0,4.5,4.75A11.7,11.7,0,0,0,109,49.16Z"/><path d="M133.41,20.37V26q5-6.52,11.9-6.52a11.48,11.48,0,0,1,6.16,1.64,10.71,10.71,0,0,1,4.13,5,20.12,20.12,0,0,1,1.48,8.17V52.08H153V34.81q0-5.79-2-8.69t-6.48-2.89a10,10,0,0,0-5.48,1.62A11.55,11.55,0,0,0,135,29.54a16.06,16.06,0,0,0-1.54,7.31V52.08h-4.06V20.37Z"/><path d="M160.41,8.12h4.06v25l14.65-12.77h6L167.76,35.48l18.4,16.6h-5.79l-15.9-14.27V52.08h-4.06Z"/><path d="M24.71,89.17A17,17,0,0,1,16,87a16,16,0,0,1-6-6,17.06,17.06,0,0,1-2.14-8.5,16.81,16.81,0,0,1,2.18-8.5,15.92,15.92,0,0,1,6.07-6,17.28,17.28,0,0,1,8.66-2.19,18.5,18.5,0,0,1,8.25,1.84,15.4,15.4,0,0,1,6,5l-3,2.56a15.44,15.44,0,0,0-5-4.1,14.23,14.23,0,0,0-6.41-1.38,12.42,12.42,0,0,0-6.42,1.67A12.18,12.18,0,0,0,13.75,66a12.88,12.88,0,0,0-1.65,6.48,13.63,13.63,0,0,0,1.61,6.65,11.48,11.48,0,0,0,4.52,4.54,13.13,13.13,0,0,0,6.48,1.6A14.19,14.19,0,0,0,36.1,79.86l3.07,2.39a18.32,18.32,0,0,1-6.25,5.11A18.3,18.3,0,0,1,24.71,89.17Z"/><path d="M55.47,89.11a15.51,15.51,0,0,1-8.25-2.27,16.82,16.82,0,0,1-8-14.44,16.29,16.29,0,0,1,2.19-8.29,16.64,16.64,0,0,1,5.93-6.06,15.72,15.72,0,0,1,8.25-2.28,15.19,15.19,0,0,1,7.11,1.69,15.75,15.75,0,0,1,5.56,5V56.63h4V88.34h-4V82.9a17.58,17.58,0,0,1-5.81,4.67A16,16,0,0,1,55.47,89.11Zm.41-3.69a12.88,12.88,0,0,0,6.21-1.58,12.08,12.08,0,0,0,4.69-4.48,13.63,13.63,0,0,0,.08-13.29A12.42,12.42,0,0,0,56,59.73a12.16,12.16,0,0,0-6.42,1.77A12.41,12.41,0,0,0,45,66.19a13.24,13.24,0,0,0,0,12.69,13.05,13.05,0,0,0,4.5,4.75A11.7,11.7,0,0,0,55.88,85.42Z"/><path d="M80.25,56.63V62.3q4.95-6.52,11.9-6.53a11.54,11.54,0,0,1,6.17,1.65,10.69,10.69,0,0,1,4.12,5,20.12,20.12,0,0,1,1.48,8.17V88.34H99.86V71.07q0-5.79-2-8.69t-6.48-2.9a9.92,9.92,0,0,0-5.48,1.63,11.56,11.56,0,0,0-4.11,4.69,16,16,0,0,0-1.54,7.31V88.34H76.19V56.63Z"/><path d="M129.54,56.63h4.36L119.75,88.34h-1.44L104,56.63h4.36L119,80.4Z"/><path d="M149.25,89.11A15.51,15.51,0,0,1,141,86.84a16.88,16.88,0,0,1-8-14.44,16.29,16.29,0,0,1,2.19-8.29,16.75,16.75,0,0,1,5.94-6.06,15.72,15.72,0,0,1,8.25-2.28,15.18,15.18,0,0,1,7.1,1.69,15.66,15.66,0,0,1,5.56,5V56.63h4V88.34h-4V82.9a17.58,17.58,0,0,1-5.81,4.67A16,16,0,0,1,149.25,89.11Zm.42-3.69a12.91,12.91,0,0,0,6.21-1.58,12.06,12.06,0,0,0,4.68-4.48,12.71,12.71,0,0,0,1.77-6.73,12.89,12.89,0,0,0-1.68-6.56,12.41,12.41,0,0,0-4.55-4.63,12.62,12.62,0,0,0-12.79.06,12.48,12.48,0,0,0-4.52,4.69,13.24,13.24,0,0,0,0,12.69,13.22,13.22,0,0,0,4.5,4.75A11.71,11.71,0,0,0,149.67,85.42Z"/><path d="M176.62,89.17A12.13,12.13,0,0,1,171.41,88a11.72,11.72,0,0,1-4.19-3.35l2.59-2.92c2.11,2.35,4.31,3.52,6.62,3.52a6.35,6.35,0,0,0,2.9-.68,5.45,5.45,0,0,0,2.14-1.92,4.73,4.73,0,0,0,.82-2.65,4.59,4.59,0,0,0-.82-2.75,7.26,7.26,0,0,0-2.58-2.1c-2.52-1.34-4.43-2.46-5.75-3.33a11.76,11.76,0,0,1-3.23-3.17,7.75,7.75,0,0,1-1.25-4.42A8.18,8.18,0,0,1,173,56.86a9.14,9.14,0,0,1,4.4-1.09,9.7,9.7,0,0,1,4.52,1.09,17.39,17.39,0,0,1,4.25,3.23l-2.62,2.68a12.89,12.89,0,0,0-3.09-2.27,7.26,7.26,0,0,0-3.31-.77,5.06,5.06,0,0,0-2.4.57A4.87,4.87,0,0,0,173,61.82a3.74,3.74,0,0,0-.64,2.14,4.31,4.31,0,0,0,1,2.81,9.57,9.57,0,0,0,2.91,2.28A64.51,64.51,0,0,1,182,72.48a10.66,10.66,0,0,1,3.05,3.09,7.74,7.74,0,0,1,1.1,4.23A9.56,9.56,0,0,1,185,84.46a9,9,0,0,1-3.37,3.44A9.81,9.81,0,0,1,176.62,89.17Z"/><rect class="cls-1" x="2" y="2" width="189.66" height="93.09"/></g></g></svg>