<svg xmlns="http://www.w3.org/2000/svg" viewBox="0 0 178.24 80.63"><g id="Layer_2" data-name="Layer 2"><g id="Layer_1-2" data-name="Layer 1"><path d="M18.4,44.79q-7.71,0-12.61-6.69V44H1.73V0H5.79V17.69A15.94,15.94,0,0,1,18.52,11.4a15.63,15.63,0,0,1,8.27,2.27,16.38,16.38,0,0,1,5.88,6.12,16.78,16.78,0,0,1,2.16,8.34,16.8,16.8,0,0,1-8.14,14.39A15.75,15.75,0,0,1,18.4,44.79Zm-.3-3.94a12,12,0,0,0,6.44-1.75A12.31,12.31,0,0,0,29,34.38,13,13,0,0,0,30.65,28,12.68,12.68,0,0,0,29,21.65a13.17,13.17,0,0,0-4.54-4.75,11.63,11.63,0,0,0-6.32-1.8,12.81,12.81,0,0,0-6.18,1.57,11.88,11.88,0,0,0-4.67,4.48A12.81,12.81,0,0,0,5.5,27.9a13.3,13.3,0,0,0,1.65,6.6,12.21,12.21,0,0,0,4.54,4.65A12.34,12.34,0,0,0,18.1,40.85Z"/><path d="M40.2,0V44H36.14V0Z"/><path d="M57.83,44.73a15.46,15.46,0,0,1-8.25-2.27,16.6,16.6,0,0,1-5.86-6.11A16.8,16.8,0,0,1,41.58,28a16.28,16.28,0,0,1,2.18-8.29,16.75,16.75,0,0,1,5.94-6.06A15.71,15.71,0,0,1,58,11.4a15.14,15.14,0,0,1,7.1,1.68,15.69,15.69,0,0,1,5.57,5V12.25h4V44h-4V38.52a17.49,17.49,0,0,1-5.82,4.67A16,16,0,0,1,57.83,44.73ZM58.24,41a12.8,12.8,0,0,0,6.21-1.58A12.08,12.08,0,0,0,69.14,35a12.8,12.8,0,0,0,1.77-6.73,12.82,12.82,0,0,0-1.69-6.56A12.42,12.42,0,0,0,58.3,15.35a12,12,0,0,0-6.41,1.78,12.31,12.31,0,0,0-4.52,4.68,13.16,13.16,0,0,0,0,12.69,13.05,13.05,0,0,0,4.5,4.75A11.68,11.68,0,0,0,58.24,41Z"/><path d="M82.61,12.25v5.67q5-6.53,11.9-6.52A11.48,11.48,0,0,1,100.67,13a10.71,10.71,0,0,1,4.13,5,20.12,20.12,0,0,1,1.48,8.17V44h-4.07V26.69c0-3.86-.66-6.76-2-8.69s-3.49-2.9-6.47-2.9a10,10,0,0,0-5.48,1.63,11.48,11.48,0,0,0-4.11,4.69,16.06,16.06,0,0,0-1.54,7.31V44H78.55V12.25Z"/><path d="M109.61,0h4.06V25l14.65-12.77h6L117,27.35,135.36,44h-5.79l-15.9-14.27V44h-4.06Z"/><path d="M16.79,80.63a17,17,0,0,1-8.66-2.21,15.79,15.79,0,0,1-6-6A17,17,0,0,1,0,63.9a16.71,16.71,0,0,1,2.19-8.5,16,16,0,0,1,6.06-6,17.39,17.39,0,0,1,8.67-2.18,18.5,18.5,0,0,1,8.25,1.83,15.47,15.47,0,0,1,6,5l-3,2.56a15.92,15.92,0,0,0-5-4.1,14.24,14.24,0,0,0-6.42-1.38,12.21,12.21,0,0,0-10.9,6.23A12.9,12.9,0,0,0,4.19,63.9a13.63,13.63,0,0,0,1.6,6.65,11.54,11.54,0,0,0,4.52,4.54,13.13,13.13,0,0,0,6.48,1.6,14.21,14.21,0,0,0,11.4-5.37l3.06,2.4A18.32,18.32,0,0,1,25,78.82,18.26,18.26,0,0,1,16.79,80.63Z"/><path d="M47.55,80.57A15.51,15.51,0,0,1,39.3,78.3a16.88,16.88,0,0,1-8-14.44,16.29,16.29,0,0,1,2.19-8.29,16.75,16.75,0,0,1,5.94-6.06,15.71,15.71,0,0,1,8.25-2.27,15.17,15.17,0,0,1,7.1,1.68,15.66,15.66,0,0,1,5.56,5V48.09h4V79.8h-4V74.36A17.46,17.46,0,0,1,54.53,79,16,16,0,0,1,47.55,80.57ZM48,76.88a12.8,12.8,0,0,0,6.21-1.58,12.06,12.06,0,0,0,4.68-4.48,12.71,12.71,0,0,0,1.77-6.73A12.92,12.92,0,0,0,59,57.53a12.45,12.45,0,0,0-4.54-4.63A12.31,12.31,0,0,0,48,51.19,12.08,12.08,0,0,0,41.61,53a12.38,12.38,0,0,0-4.52,4.68,13.24,13.24,0,0,0,0,12.69,13.22,13.22,0,0,0,4.5,4.75A11.71,11.71,0,0,0,48,76.88Z"/><path d="M72.34,48.09v5.67q4.95-6.52,11.89-6.52a11.51,11.51,0,0,1,6.17,1.64,10.69,10.69,0,0,1,4.12,5A20,20,0,0,1,96,62V79.8H91.94V62.53q0-5.79-2-8.69t-6.48-2.9A10,10,0,0,0,78,52.57a11.53,11.53,0,0,0-4.1,4.69,16.06,16.06,0,0,0-1.54,7.31V79.8H68.27V48.09Z"/><path d="M121.63,48.09H126L111.84,79.8H110.4L96.13,48.09h4.35l10.63,23.77Z"/><path d="M141.33,80.57a15.51,15.51,0,0,1-8.25-2.27,16.88,16.88,0,0,1-8-14.44,16.29,16.29,0,0,1,2.19-8.29,16.75,16.75,0,0,1,5.94-6.06,15.71,15.71,0,0,1,8.25-2.27,15.14,15.14,0,0,1,7.1,1.68,15.77,15.77,0,0,1,5.57,5V48.09h4V79.8h-4V74.36A17.59,17.59,0,0,1,148.31,79,16,16,0,0,1,141.33,80.57Zm.42-3.69A12.8,12.8,0,0,0,148,75.3a12.08,12.08,0,0,0,4.69-4.48,13.63,13.63,0,0,0,.08-13.29,12.42,12.42,0,0,0-10.92-6.34A12,12,0,0,0,135.4,53a12.24,12.24,0,0,0-4.52,4.68,13.16,13.16,0,0,0,0,12.69,13.05,13.05,0,0,0,4.5,4.75A11.65,11.65,0,0,0,141.75,76.88Z"/><path d="M168.7,80.63a12,12,0,0,1-5.21-1.19,11.69,11.69,0,0,1-4.18-3.35l2.58-2.92q3.17,3.52,6.62,3.52a6.2,6.2,0,0,0,2.9-.68,5.47,5.47,0,0,0,2.15-1.92,4.72,4.72,0,0,0,.81-2.65,4.59,4.59,0,0,0-.81-2.75,7.22,7.22,0,0,0-2.59-2.1c-2.51-1.34-4.43-2.46-5.75-3.33A12,12,0,0,1,162,60.09a7.73,7.73,0,0,1-1.25-4.42,8.16,8.16,0,0,1,4.34-7.35,9.06,9.06,0,0,1,4.39-1.08A9.66,9.66,0,0,1,174,48.32a17.39,17.39,0,0,1,4.25,3.23l-2.62,2.69A12.59,12.59,0,0,0,172.54,52a7.31,7.31,0,0,0-3.32-.78,5.05,5.05,0,0,0-2.39.57,4.71,4.71,0,0,0-1.73,1.52,3.75,3.75,0,0,0-.65,2.14,4.36,4.36,0,0,0,1,2.82,9.77,9.77,0,0,0,2.92,2.27,66,66,0,0,1,5.77,3.43,10.87,10.87,0,0,1,3,3.09,7.74,7.74,0,0,1,1.1,4.23,9.55,9.55,0,0,1-1.18,4.66,9,9,0,0,1-3.38,3.44A9.71,9.71,0,0,1,168.7,80.63Z"/></g></g></svg>