<svg xmlns="http://www.w3.org/2000/svg" xmlns:xlink="http://www.w3.org/1999/xlink" viewBox="0 0 539.6 149.34"><defs><style>.cls-1{fill:none;}.cls-2{clip-path:url(#clip-path);}.cls-3{fill:#fff;}</style><clipPath id="clip-path"><rect class="cls-1" width="539.6" height="149.34"/></clipPath></defs><g id="Layer_2" data-name="Layer 2"><g id="Layer_1-2" data-name="Layer 1"><g class="cls-2"><path class="cls-3" d="M0,0H539.6V149.34H0Z"/></g><path d="M42.19,80.33q-7.71,0-12.6-6.69V79.5H25.53v-44h4.06V53.23q5.21-6.3,12.73-6.3a15.57,15.57,0,0,1,8.27,2.28,16.35,16.35,0,0,1,5.87,6.12,16.68,16.68,0,0,1,2.17,8.33,16.87,16.87,0,0,1-8.15,14.4A15.72,15.72,0,0,1,42.19,80.33Zm-.29-3.94a12.06,12.06,0,0,0,6.44-1.75,12.34,12.34,0,0,0,4.48-4.73,13,13,0,0,0,1.62-6.35,12.73,12.73,0,0,0-1.68-6.38,13.28,13.28,0,0,0-4.55-4.75,11.67,11.67,0,0,0-6.31-1.79,12.74,12.74,0,0,0-6.19,1.57,11.9,11.9,0,0,0-4.66,4.47,12.86,12.86,0,0,0-1.75,6.75A13.31,13.31,0,0,0,30.94,70a12.19,12.19,0,0,0,4.54,4.64A12.39,12.39,0,0,0,41.9,76.39Z"/><path d="M64,35.54v44H59.94v-44Z"/><path d="M81.62,80.27A15.51,15.51,0,0,1,73.37,78a16.58,16.58,0,0,1-5.85-6.11,16.84,16.84,0,0,1-2.15-8.33,16.29,16.29,0,0,1,2.19-8.29,16.75,16.75,0,0,1,5.94-6.06,15.63,15.63,0,0,1,8.25-2.28,15.18,15.18,0,0,1,7.1,1.69,15.66,15.66,0,0,1,5.56,5V47.79h4V79.5h-4V74.06a17.58,17.58,0,0,1-5.81,4.67A16,16,0,0,1,81.62,80.27ZM82,76.58A12.91,12.91,0,0,0,88.25,75a12.06,12.06,0,0,0,4.68-4.48,12.74,12.74,0,0,0,1.78-6.73A12.9,12.9,0,0,0,93,57.23a12.45,12.45,0,0,0-4.54-4.63,12.31,12.31,0,0,0-6.38-1.71,12.16,12.16,0,0,0-6.42,1.77,12.48,12.48,0,0,0-4.52,4.69,13.2,13.2,0,0,0,0,12.69,13.05,13.05,0,0,0,4.5,4.75A11.65,11.65,0,0,0,82,76.58Z"/><path d="M106.41,47.79v5.67q4.95-6.52,11.89-6.53a11.52,11.52,0,0,1,6.17,1.65,10.64,10.64,0,0,1,4.12,5,20,20,0,0,1,1.48,8.17V79.5H126V62.23q0-5.79-2-8.69t-6.48-2.9a10,10,0,0,0-5.48,1.63A11.46,11.46,0,0,0,108,57a16,16,0,0,0-1.54,7.31V79.5h-4.07V47.79Z"/><path d="M133.41,35.54h4.06v25l14.64-12.77h6l-17.38,15.1,18.4,16.61h-5.8L137.47,65.23V79.5h-4.06Z"/><path d="M40.59,116.17A17,17,0,0,1,31.92,114a16,16,0,0,1-6-6,17.06,17.06,0,0,1-2.14-8.5A16.81,16.81,0,0,1,26,90.94a15.92,15.92,0,0,1,6.07-6,17.28,17.28,0,0,1,8.66-2.19A18.5,18.5,0,0,1,49,84.61a15.4,15.4,0,0,1,6,5l-3,2.56a15.44,15.44,0,0,0-5-4.1,14.23,14.23,0,0,0-6.41-1.38,12.42,12.42,0,0,0-6.42,1.67A12.18,12.18,0,0,0,29.63,93,12.88,12.88,0,0,0,28,99.44a13.63,13.63,0,0,0,1.61,6.65,11.48,11.48,0,0,0,4.52,4.54,13.13,13.13,0,0,0,6.48,1.6A14.19,14.19,0,0,0,52,106.86l3.07,2.39a17.75,17.75,0,0,1-14.46,6.92Z"/><path d="M71.35,116.11a15.51,15.51,0,0,1-8.25-2.27,16.82,16.82,0,0,1-8-14.44,16.29,16.29,0,0,1,2.19-8.29,16.64,16.64,0,0,1,5.93-6.06,15.72,15.72,0,0,1,8.25-2.28,15.19,15.19,0,0,1,7.11,1.69,15.75,15.75,0,0,1,5.56,5V83.63h4v31.71h-4V109.9a17.58,17.58,0,0,1-5.81,4.67A16,16,0,0,1,71.35,116.11Zm.41-3.69A12.88,12.88,0,0,0,78,110.84a12.08,12.08,0,0,0,4.69-4.48,13.63,13.63,0,0,0,.08-13.29,12.42,12.42,0,0,0-10.91-6.34,12.16,12.16,0,0,0-6.42,1.77,12.41,12.41,0,0,0-4.52,4.69,13.24,13.24,0,0,0,0,12.69,13.05,13.05,0,0,0,4.5,4.75A11.7,11.7,0,0,0,71.76,112.42Z"/><path d="M96.13,83.63V89.3q5-6.52,11.9-6.53a11.54,11.54,0,0,1,6.17,1.65,10.69,10.69,0,0,1,4.12,5,20.12,20.12,0,0,1,1.48,8.17v17.79h-4.06V98.07q0-5.79-2-8.69t-6.48-2.9a9.92,9.92,0,0,0-5.48,1.63,11.56,11.56,0,0,0-4.11,4.69,16,16,0,0,0-1.54,7.31v15.23H92.07V83.63Z"/><path d="M145.42,83.63h4.36l-14.15,31.71h-1.44L119.92,83.63h4.36L134.9,107.4Z"/><path d="M165.13,116.11a15.51,15.51,0,0,1-8.25-2.27,16.88,16.88,0,0,1-8-14.44,16.29,16.29,0,0,1,2.19-8.29A16.75,16.75,0,0,1,157,85.05a15.72,15.72,0,0,1,8.25-2.28,15.18,15.18,0,0,1,7.1,1.69,15.66,15.66,0,0,1,5.56,5V83.63h4v31.71h-4V109.9a17.58,17.58,0,0,1-5.81,4.67A16,16,0,0,1,165.13,116.11Zm.42-3.69a12.91,12.91,0,0,0,6.21-1.58,12.06,12.06,0,0,0,4.68-4.48,12.71,12.71,0,0,0,1.77-6.73,12.89,12.89,0,0,0-1.68-6.56A12.45,12.45,0,0,0,172,88.44a12.31,12.31,0,0,0-6.38-1.71,12.16,12.16,0,0,0-6.42,1.77,12.48,12.48,0,0,0-4.52,4.69,13.24,13.24,0,0,0,0,12.69,13.22,13.22,0,0,0,4.5,4.75A11.71,11.71,0,0,0,165.55,112.42Z"/><path d="M192.5,116.17a12.13,12.13,0,0,1-5.21-1.19,11.72,11.72,0,0,1-4.19-3.35l2.59-2.92c2.11,2.35,4.31,3.52,6.62,3.52a6.35,6.35,0,0,0,2.9-.68,5.45,5.45,0,0,0,2.14-1.92,4.65,4.65,0,0,0,.82-2.65,4.53,4.53,0,0,0-.82-2.75,7.26,7.26,0,0,0-2.58-2.1c-2.52-1.34-4.43-2.46-5.75-3.33a11.76,11.76,0,0,1-3.23-3.17,7.75,7.75,0,0,1-1.25-4.42,8.18,8.18,0,0,1,4.33-7.35,9.14,9.14,0,0,1,4.4-1.09,9.67,9.67,0,0,1,4.52,1.09A17.39,17.39,0,0,1,202,87.09l-2.62,2.68a12.89,12.89,0,0,0-3.09-2.27,7.26,7.26,0,0,0-3.31-.77,5.09,5.09,0,0,0-2.4.57,4.76,4.76,0,0,0-1.72,1.52,3.68,3.68,0,0,0-.65,2.14,4.31,4.31,0,0,0,1,2.81,9.57,9.57,0,0,0,2.91,2.28,66.48,66.48,0,0,1,5.78,3.43,10.74,10.74,0,0,1,3,3.09,7.74,7.74,0,0,1,1.1,4.23,9.45,9.45,0,0,1-1.19,4.66,9,9,0,0,1-3.37,3.44A9.81,9.81,0,0,1,192.5,116.17Z"/></g></g></svg>