<svg xmlns="http://www.w3.org/2000/svg" xmlns:xlink="http://www.w3.org/1999/xlink" width="542" zoomAndPan="magnify" viewBox="0 0 406.5 112.499997" height="150" preserveAspectRatio="xMidYMid meet" version="1.0"><defs><g/><clipPath id="7d8fe306cd"><path d="M 0.652344 0 L 405.351562 0 L 405.351562 112.003906 L 0.652344 112.003906 Z M 0.652344 0 " clip-rule="nonzero"/></clipPath></defs><g clip-path="url(#7d8fe306cd)"><path fill="#ffffff" d="M 0.652344 0 L 405.351562 0 L 405.351562 112.003906 L 0.652344 112.003906 Z M 0.652344 0 " fill-opacity="1" fill-rule="nonzero"/></g><g fill="#000000" fill-opacity="1"><g transform="translate(16.218757, 59.622509)"><g><path d="M 16.078125 0.625 C 12.222656 0.625 9.070312 -1.046875 6.625 -4.390625 L 6.625 0 L 3.578125 0 L 3.578125 -32.96875 L 6.625 -32.96875 L 6.625 -19.703125 C 9.226562 -22.847656 12.410156 -24.421875 16.171875 -24.421875 C 18.441406 -24.421875 20.507812 -23.851562 22.375 -22.71875 C 24.238281 -21.582031 25.707031 -20.050781 26.78125 -18.125 C 27.863281 -16.195312 28.40625 -14.113281 28.40625 -11.875 C 28.40625 -9.664062 27.859375 -7.597656 26.765625 -5.671875 C 25.671875 -3.742188 24.179688 -2.210938 22.296875 -1.078125 C 20.421875 0.0546875 18.347656 0.625 16.078125 0.625 Z M 15.859375 -2.328125 C 17.648438 -2.328125 19.257812 -2.765625 20.6875 -3.640625 C 22.125 -4.523438 23.242188 -5.707031 24.046875 -7.1875 C 24.859375 -8.664062 25.265625 -10.253906 25.265625 -11.953125 C 25.265625 -13.660156 24.84375 -15.253906 24 -16.734375 C 23.164062 -18.210938 22.03125 -19.398438 20.59375 -20.296875 C 19.164062 -21.191406 17.585938 -21.640625 15.859375 -21.640625 C 14.210938 -21.640625 12.664062 -21.25 11.21875 -20.46875 C 9.769531 -19.695312 8.601562 -18.578125 7.71875 -17.109375 C 6.84375 -15.648438 6.40625 -13.960938 6.40625 -12.046875 C 6.40625 -10.222656 6.816406 -8.570312 7.640625 -7.09375 C 8.460938 -5.625 9.597656 -4.460938 11.046875 -3.609375 C 12.492188 -2.753906 14.097656 -2.328125 15.859375 -2.328125 Z M 15.859375 -2.328125 "/></g></g></g><g fill="#000000" fill-opacity="1"><g transform="translate(42.651251, 59.622509)"><g><path d="M 6 -32.96875 L 6 0 L 2.953125 0 L 2.953125 -32.96875 Z M 6 -32.96875 "/></g></g></g><g fill="#000000" fill-opacity="1"><g transform="translate(47.400134, 59.622509)"><g><path d="M 14.46875 0.578125 C 12.195312 0.578125 10.132812 0.0078125 8.28125 -1.125 C 6.4375 -2.257812 4.972656 -3.785156 3.890625 -5.703125 C 2.816406 -7.628906 2.28125 -9.710938 2.28125 -11.953125 C 2.28125 -14.203125 2.828125 -16.273438 3.921875 -18.171875 C 5.015625 -20.066406 6.5 -21.582031 8.375 -22.71875 C 10.257812 -23.851562 12.320312 -24.421875 14.5625 -24.421875 C 16.5 -24.421875 18.273438 -24 19.890625 -23.15625 C 21.503906 -22.320312 22.894531 -21.082031 24.0625 -19.4375 L 24.0625 -23.78125 L 27.0625 -23.78125 L 27.0625 0 L 24.0625 0 L 24.0625 -4.078125 C 22.769531 -2.523438 21.316406 -1.359375 19.703125 -0.578125 C 18.097656 0.191406 16.351562 0.578125 14.46875 0.578125 Z M 14.78125 -2.1875 C 16.425781 -2.1875 17.976562 -2.582031 19.4375 -3.375 C 20.90625 -4.164062 22.078125 -5.285156 22.953125 -6.734375 C 23.835938 -8.191406 24.28125 -9.875 24.28125 -11.78125 C 24.28125 -13.601562 23.859375 -15.242188 23.015625 -16.703125 C 22.179688 -18.171875 21.046875 -19.328125 19.609375 -20.171875 C 18.179688 -21.023438 16.585938 -21.453125 14.828125 -21.453125 C 13.066406 -21.453125 11.460938 -21.007812 10.015625 -20.125 C 8.566406 -19.25 7.4375 -18.078125 6.625 -16.609375 C 5.820312 -15.148438 5.421875 -13.570312 5.421875 -11.875 C 5.421875 -10.164062 5.832031 -8.570312 6.65625 -7.09375 C 7.476562 -5.625 8.601562 -4.4375 10.03125 -3.53125 C 11.46875 -2.632812 13.050781 -2.1875 14.78125 -2.1875 Z M 14.78125 -2.1875 "/></g></g></g><g fill="#000000" fill-opacity="1"><g transform="translate(73.832628, 59.622509)"><g><path d="M 6.625 -23.78125 L 6.625 -19.53125 C 9.101562 -22.789062 12.078125 -24.421875 15.546875 -24.421875 C 17.304688 -24.421875 18.847656 -24.007812 20.171875 -23.1875 C 21.503906 -22.363281 22.535156 -21.125 23.265625 -19.46875 C 24.003906 -17.8125 24.375 -15.769531 24.375 -13.34375 L 24.375 0 L 21.328125 0 L 21.328125 -12.953125 C 21.328125 -15.847656 20.828125 -18.019531 19.828125 -19.46875 C 18.828125 -20.914062 17.207031 -21.640625 14.96875 -21.640625 C 13.5 -21.640625 12.128906 -21.234375 10.859375 -20.421875 C 9.585938 -19.617188 8.5625 -18.445312 7.78125 -16.90625 C 7.007812 -15.375 6.625 -13.546875 6.625 -11.421875 L 6.625 0 L 3.578125 0 L 3.578125 -23.78125 Z M 6.625 -23.78125 "/></g></g></g><g fill="#000000" fill-opacity="1"><g transform="translate(97.129063, 59.622509)"><g><path d="M 3.578125 -32.96875 L 6.625 -32.96875 L 6.625 -14.203125 L 17.609375 -23.78125 L 22.125 -23.78125 L 9.09375 -12.453125 L 22.890625 0 L 18.546875 0 L 6.625 -10.703125 L 6.625 0 L 3.578125 0 Z M 3.578125 -32.96875 "/></g></g></g><g fill="#000000" fill-opacity="1"><g transform="translate(16.218757, 86.503042)"><g><path d="M 14.875 0.625 C 12.457031 0.625 10.289062 0.0703125 8.375 -1.03125 C 6.46875 -2.132812 4.972656 -3.640625 3.890625 -5.546875 C 2.816406 -7.460938 2.28125 -9.585938 2.28125 -11.921875 C 2.28125 -14.273438 2.828125 -16.398438 3.921875 -18.296875 C 5.015625 -20.191406 6.53125 -21.6875 8.46875 -22.78125 C 10.40625 -23.875 12.570312 -24.421875 14.96875 -24.421875 C 17.226562 -24.421875 19.289062 -23.960938 21.15625 -23.046875 C 23.03125 -22.140625 24.535156 -20.878906 25.671875 -19.265625 L 23.421875 -17.34375 C 22.285156 -18.707031 21.023438 -19.734375 19.640625 -20.421875 C 18.253906 -21.109375 16.648438 -21.453125 14.828125 -21.453125 C 13.035156 -21.453125 11.429688 -21.035156 10.015625 -20.203125 C 8.597656 -19.367188 7.476562 -18.226562 6.65625 -16.78125 C 5.832031 -15.332031 5.421875 -13.710938 5.421875 -11.921875 C 5.421875 -10.066406 5.820312 -8.40625 6.625 -6.9375 C 7.4375 -5.476562 8.566406 -4.34375 10.015625 -3.53125 C 11.460938 -2.726562 13.082031 -2.328125 14.875 -2.328125 C 18.332031 -2.328125 21.179688 -3.671875 23.421875 -6.359375 L 25.71875 -4.5625 C 24.425781 -2.925781 22.863281 -1.648438 21.03125 -0.734375 C 19.195312 0.171875 17.144531 0.625 14.875 0.625 Z M 14.875 0.625 "/></g></g></g><g fill="#000000" fill-opacity="1"><g transform="translate(39.694399, 86.503042)"><g><path d="M 14.46875 0.578125 C 12.195312 0.578125 10.132812 0.0078125 8.28125 -1.125 C 6.4375 -2.257812 4.972656 -3.785156 3.890625 -5.703125 C 2.816406 -7.628906 2.28125 -9.710938 2.28125 -11.953125 C 2.28125 -14.203125 2.828125 -16.273438 3.921875 -18.171875 C 5.015625 -20.066406 6.5 -21.582031 8.375 -22.71875 C 10.257812 -23.851562 12.320312 -24.421875 14.5625 -24.421875 C 16.5 -24.421875 18.273438 -24 19.890625 -23.15625 C 21.503906 -22.320312 22.894531 -21.082031 24.0625 -19.4375 L 24.0625 -23.78125 L 27.0625 -23.78125 L 27.0625 0 L 24.0625 0 L 24.0625 -4.078125 C 22.769531 -2.523438 21.316406 -1.359375 19.703125 -0.578125 C 18.097656 0.191406 16.351562 0.578125 14.46875 0.578125 Z M 14.78125 -2.1875 C 16.425781 -2.1875 17.976562 -2.582031 19.4375 -3.375 C 20.90625 -4.164062 22.078125 -5.285156 22.953125 -6.734375 C 23.835938 -8.191406 24.28125 -9.875 24.28125 -11.78125 C 24.28125 -13.601562 23.859375 -15.242188 23.015625 -16.703125 C 22.179688 -18.171875 21.046875 -19.328125 19.609375 -20.171875 C 18.179688 -21.023438 16.585938 -21.453125 14.828125 -21.453125 C 13.066406 -21.453125 11.460938 -21.007812 10.015625 -20.125 C 8.566406 -19.25 7.4375 -18.078125 6.625 -16.609375 C 5.820312 -15.148438 5.421875 -13.570312 5.421875 -11.875 C 5.421875 -10.164062 5.832031 -8.570312 6.65625 -7.09375 C 7.476562 -5.625 8.601562 -4.4375 10.03125 -3.53125 C 11.46875 -2.632812 13.050781 -2.1875 14.78125 -2.1875 Z M 14.78125 -2.1875 "/></g></g></g><g fill="#000000" fill-opacity="1"><g transform="translate(66.126894, 86.503042)"><g><path d="M 6.625 -23.78125 L 6.625 -19.53125 C 9.101562 -22.789062 12.078125 -24.421875 15.546875 -24.421875 C 17.304688 -24.421875 18.847656 -24.007812 20.171875 -23.1875 C 21.503906 -22.363281 22.535156 -21.125 23.265625 -19.46875 C 24.003906 -17.8125 24.375 -15.769531 24.375 -13.34375 L 24.375 0 L 21.328125 0 L 21.328125 -12.953125 C 21.328125 -15.847656 20.828125 -18.019531 19.828125 -19.46875 C 18.828125 -20.914062 17.207031 -21.640625 14.96875 -21.640625 C 13.5 -21.640625 12.128906 -21.234375 10.859375 -20.421875 C 9.585938 -19.617188 8.5625 -18.445312 7.78125 -16.90625 C 7.007812 -15.375 6.625 -13.546875 6.625 -11.421875 L 6.625 0 L 3.578125 0 L 3.578125 -23.78125 Z M 6.625 -23.78125 "/></g></g></g><g fill="#000000" fill-opacity="1"><g transform="translate(89.423328, 86.503042)"><g><path d="M 20.296875 -23.78125 L 23.5625 -23.78125 L 12.953125 0 L 11.875 0 L 1.171875 -23.78125 L 4.4375 -23.78125 L 12.40625 -5.953125 Z M 20.296875 -23.78125 "/></g></g></g><g fill="#000000" fill-opacity="1"><g transform="translate(110.031717, 86.503042)"><g><path d="M 14.46875 0.578125 C 12.195312 0.578125 10.132812 0.0078125 8.28125 -1.125 C 6.4375 -2.257812 4.972656 -3.785156 3.890625 -5.703125 C 2.816406 -7.628906 2.28125 -9.710938 2.28125 -11.953125 C 2.28125 -14.203125 2.828125 -16.273438 3.921875 -18.171875 C 5.015625 -20.066406 6.5 -21.582031 8.375 -22.71875 C 10.257812 -23.851562 12.320312 -24.421875 14.5625 -24.421875 C 16.5 -24.421875 18.273438 -24 19.890625 -23.15625 C 21.503906 -22.320312 22.894531 -21.082031 24.0625 -19.4375 L 24.0625 -23.78125 L 27.0625 -23.78125 L 27.0625 0 L 24.0625 0 L 24.0625 -4.078125 C 22.769531 -2.523438 21.316406 -1.359375 19.703125 -0.578125 C 18.097656 0.191406 16.351562 0.578125 14.46875 0.578125 Z M 14.78125 -2.1875 C 16.425781 -2.1875 17.976562 -2.582031 19.4375 -3.375 C 20.90625 -4.164062 22.078125 -5.285156 22.953125 -6.734375 C 23.835938 -8.191406 24.28125 -9.875 24.28125 -11.78125 C 24.28125 -13.601562 23.859375 -15.242188 23.015625 -16.703125 C 22.179688 -18.171875 21.046875 -19.328125 19.609375 -20.171875 C 18.179688 -21.023438 16.585938 -21.453125 14.828125 -21.453125 C 13.066406 -21.453125 11.460938 -21.007812 10.015625 -20.125 C 8.566406 -19.25 7.4375 -18.078125 6.625 -16.609375 C 5.820312 -15.148438 5.421875 -13.570312 5.421875 -11.875 C 5.421875 -10.164062 5.832031 -8.570312 6.65625 -7.09375 C 7.476562 -5.625 8.601562 -4.4375 10.03125 -3.53125 C 11.46875 -2.632812 13.050781 -2.1875 14.78125 -2.1875 Z M 14.78125 -2.1875 "/></g></g></g><g fill="#000000" fill-opacity="1"><g transform="translate(136.464212, 86.503042)"><g><path d="M 8.5625 0.625 C 7.21875 0.625 5.914062 0.328125 4.65625 -0.265625 C 3.40625 -0.867188 2.359375 -1.707031 1.515625 -2.78125 L 3.453125 -4.96875 C 5.035156 -3.207031 6.691406 -2.328125 8.421875 -2.328125 C 9.203125 -2.328125 9.925781 -2.5 10.59375 -2.84375 C 11.269531 -3.1875 11.804688 -3.664062 12.203125 -4.28125 C 12.609375 -4.894531 12.8125 -5.554688 12.8125 -6.265625 C 12.8125 -7.078125 12.609375 -7.765625 12.203125 -8.328125 C 11.804688 -8.898438 11.160156 -9.425781 10.265625 -9.90625 C 8.378906 -10.914062 6.941406 -11.75 5.953125 -12.40625 C 4.972656 -13.0625 4.164062 -13.851562 3.53125 -14.78125 C 2.90625 -15.707031 2.59375 -16.8125 2.59375 -18.09375 C 2.59375 -19.320312 2.882812 -20.410156 3.46875 -21.359375 C 4.050781 -22.316406 4.84375 -23.066406 5.84375 -23.609375 C 6.84375 -24.148438 7.941406 -24.421875 9.140625 -24.421875 C 10.359375 -24.421875 11.488281 -24.148438 12.53125 -23.609375 C 13.582031 -23.066406 14.644531 -22.257812 15.71875 -21.1875 L 13.75 -19.171875 C 12.976562 -19.921875 12.207031 -20.488281 11.4375 -20.875 C 10.675781 -21.257812 9.847656 -21.453125 8.953125 -21.453125 C 8.296875 -21.453125 7.695312 -21.3125 7.15625 -21.03125 C 6.625 -20.75 6.191406 -20.367188 5.859375 -19.890625 C 5.535156 -19.410156 5.375 -18.875 5.375 -18.28125 C 5.375 -17.46875 5.613281 -16.765625 6.09375 -16.171875 C 6.570312 -15.578125 7.300781 -15.007812 8.28125 -14.46875 C 10.195312 -13.425781 11.640625 -12.566406 12.609375 -11.890625 C 13.578125 -11.222656 14.335938 -10.453125 14.890625 -9.578125 C 15.441406 -8.710938 15.71875 -7.65625 15.71875 -6.40625 C 15.71875 -5.15625 15.421875 -3.988281 14.828125 -2.90625 C 14.234375 -1.832031 13.390625 -0.972656 12.296875 -0.328125 C 11.203125 0.304688 9.957031 0.625 8.5625 0.625 Z M 8.5625 0.625 "/></g></g></g></svg>