<svg xmlns="http://www.w3.org/2000/svg" xmlns:xlink="http://www.w3.org/1999/xlink" width="335" zoomAndPan="magnify" viewBox="0 0 251.25 92.249997" height="123" preserveAspectRatio="xMidYMid meet" version="1.0"><defs><g/></defs><g fill="#000000" fill-opacity="1"><g transform="translate(70.05755, 36.527031)"><g><path d="M 1.8125 -25 L 9.578125 -25 C 11.921875 -25 13.785156 -24.5 15.171875 -23.5 C 16.566406 -22.5 17.265625 -20.875 17.265625 -18.625 C 17.265625 -16.125 16.226562 -14.335938 14.15625 -13.265625 C 17.707031 -12.640625 19.484375 -10.539062 19.484375 -6.96875 C 19.484375 -4.863281 18.753906 -3.175781 17.296875 -1.90625 C 15.847656 -0.632812 13.847656 0 11.296875 0 L 1.8125 0 Z M 7.515625 -15.203125 L 7.96875 -15.203125 C 9.238281 -15.203125 10.1875 -15.425781 10.8125 -15.875 C 11.4375 -16.320312 11.75 -17.050781 11.75 -18.0625 C 11.75 -19.757812 10.488281 -20.609375 7.96875 -20.609375 L 7.515625 -20.609375 Z M 7.515625 -4.390625 L 9.296875 -4.390625 C 12.085938 -4.390625 13.484375 -5.320312 13.484375 -7.1875 C 13.484375 -8.289062 13.132812 -9.082031 12.4375 -9.5625 C 11.738281 -10.050781 10.691406 -10.296875 9.296875 -10.296875 L 7.515625 -10.296875 Z M 7.515625 -4.390625 "/></g></g></g><g fill="#000000" fill-opacity="1"><g transform="translate(90.23256, 36.527031)"><g><path d="M 7.515625 -25 L 7.515625 -5 L 16.125 -5 L 16.125 0 L 1.8125 0 L 1.8125 -25 Z M 7.515625 -25 "/></g></g></g><g fill="#000000" fill-opacity="1"><g transform="translate(107.348, 36.527031)"><g><path d="M 14.515625 -25 L 24.59375 0 L 18.484375 0 L 16.640625 -5 L 7.125 -5 L 5.265625 0 L -0.84375 0 L 9.234375 -25 Z M 14.6875 -10 L 11.90625 -17.265625 L 11.84375 -17.265625 L 9.0625 -10 Z M 14.6875 -10 "/></g></g></g><g fill="#000000" fill-opacity="1"><g transform="translate(131.097567, 36.527031)"><g><path d="M 7.515625 -15.515625 L 7.515625 0 L 1.8125 0 L 1.8125 -25 L 7.515625 -25 L 17.453125 -9.484375 L 17.515625 -9.484375 L 17.515625 -25 L 23.203125 -25 L 23.203125 0 L 17.515625 0 L 7.578125 -15.515625 Z M 7.515625 -15.515625 "/></g></g></g><g fill="#000000" fill-opacity="1"><g transform="translate(156.119433, 36.527031)"><g><path d="M 24.578125 0 L 16.71875 0 L 7.515625 -10.609375 L 7.515625 0 L 1.8125 0 L 1.8125 -25 L 7.515625 -25 L 7.515625 -14.78125 L 16.09375 -25 L 23 -25 L 12.9375 -13.15625 Z M 24.578125 0 "/></g></g></g><g fill="#000000" fill-opacity="1"><g transform="translate(55.294761, 66.285095)"><g><path d="M 15.125 -5.15625 C 15.988281 -5.15625 16.828125 -5.285156 17.640625 -5.546875 C 18.460938 -5.804688 19.066406 -6.054688 19.453125 -6.296875 L 20.03125 -6.703125 L 22.453125 -1.84375 C 22.367188 -1.78125 22.253906 -1.695312 22.109375 -1.59375 C 21.972656 -1.5 21.644531 -1.316406 21.125 -1.046875 C 20.613281 -0.773438 20.066406 -0.535156 19.484375 -0.328125 C 18.898438 -0.128906 18.128906 0.046875 17.171875 0.203125 C 16.222656 0.367188 15.242188 0.453125 14.234375 0.453125 C 11.910156 0.453125 9.707031 -0.113281 7.625 -1.25 C 5.550781 -2.394531 3.878906 -3.96875 2.609375 -5.96875 C 1.335938 -7.96875 0.703125 -10.128906 0.703125 -12.453125 C 0.703125 -14.210938 1.070312 -15.898438 1.8125 -17.515625 C 2.5625 -19.128906 3.554688 -20.507812 4.796875 -21.65625 C 6.046875 -22.8125 7.5 -23.734375 9.15625 -24.421875 C 10.8125 -25.109375 12.503906 -25.453125 14.234375 -25.453125 C 15.847656 -25.453125 17.335938 -25.257812 18.703125 -24.875 C 20.066406 -24.488281 21.035156 -24.101562 21.609375 -23.71875 L 22.453125 -23.140625 L 20.03125 -18.296875 C 19.882812 -18.421875 19.671875 -18.566406 19.390625 -18.734375 C 19.109375 -18.910156 18.539062 -19.140625 17.6875 -19.421875 C 16.84375 -19.703125 15.988281 -19.84375 15.125 -19.84375 C 13.75 -19.84375 12.515625 -19.617188 11.421875 -19.171875 C 10.328125 -18.734375 9.460938 -18.148438 8.828125 -17.421875 C 8.191406 -16.691406 7.707031 -15.90625 7.375 -15.0625 C 7.039062 -14.226562 6.875 -13.378906 6.875 -12.515625 C 6.875 -10.617188 7.585938 -8.914062 9.015625 -7.40625 C 10.441406 -5.90625 12.476562 -5.15625 15.125 -5.15625 Z M 15.125 -5.15625 "/></g></g></g><g fill="#000000" fill-opacity="1"><g transform="translate(78.10525, 66.285095)"><g><path d="M 14.515625 -25 L 24.59375 0 L 18.484375 0 L 16.640625 -5 L 7.125 -5 L 5.265625 0 L -0.84375 0 L 9.234375 -25 Z M 14.6875 -10 L 11.90625 -17.265625 L 11.84375 -17.265625 L 9.0625 -10 Z M 14.6875 -10 "/></g></g></g><g fill="#000000" fill-opacity="1"><g transform="translate(101.854818, 66.285095)"><g><path d="M 7.515625 -15.515625 L 7.515625 0 L 1.8125 0 L 1.8125 -25 L 7.515625 -25 L 17.453125 -9.484375 L 17.515625 -9.484375 L 17.515625 -25 L 23.203125 -25 L 23.203125 0 L 17.515625 0 L 7.578125 -15.515625 Z M 7.515625 -15.515625 "/></g></g></g><g fill="#000000" fill-opacity="1"><g transform="translate(126.876684, 66.285095)"><g><path d="M 9.640625 0 L -0.84375 -25 L 5.578125 -25 L 11.875 -8.578125 L 18.171875 -25 L 24.59375 -25 L 14.125 0 Z M 9.640625 0 "/></g></g></g><g fill="#000000" fill-opacity="1"><g transform="translate(150.626251, 66.285095)"><g><path d="M 14.515625 -25 L 24.59375 0 L 18.484375 0 L 16.640625 -5 L 7.125 -5 L 5.265625 0 L -0.84375 0 L 9.234375 -25 Z M 14.6875 -10 L 11.90625 -17.265625 L 11.84375 -17.265625 L 9.0625 -10 Z M 14.6875 -10 "/></g></g></g><g fill="#000000" fill-opacity="1"><g transform="translate(174.375818, 66.285095)"><g><path d="M 11.03125 -25.453125 C 12.382812 -25.453125 13.707031 -25.253906 15 -24.859375 C 16.289062 -24.460938 17.25 -24.070312 17.875 -23.6875 L 18.78125 -23.09375 L 16.484375 -18.546875 C 16.296875 -18.660156 16.039062 -18.8125 15.71875 -19 C 15.394531 -19.195312 14.789062 -19.457031 13.90625 -19.78125 C 13.019531 -20.101562 12.191406 -20.265625 11.421875 -20.265625 C 10.472656 -20.265625 9.738281 -20.0625 9.21875 -19.65625 C 8.707031 -19.257812 8.453125 -18.71875 8.453125 -18.03125 C 8.453125 -17.6875 8.570312 -17.367188 8.8125 -17.078125 C 9.0625 -16.785156 9.476562 -16.472656 10.0625 -16.140625 C 10.644531 -15.804688 11.15625 -15.535156 11.59375 -15.328125 C 12.039062 -15.128906 12.726562 -14.828125 13.65625 -14.421875 C 15.28125 -13.734375 16.660156 -12.796875 17.796875 -11.609375 C 18.941406 -10.429688 19.515625 -9.097656 19.515625 -7.609375 C 19.515625 -6.171875 19.253906 -4.914062 18.734375 -3.84375 C 18.222656 -2.769531 17.515625 -1.929688 16.609375 -1.328125 C 15.710938 -0.722656 14.71875 -0.273438 13.625 0.015625 C 12.539062 0.304688 11.363281 0.453125 10.09375 0.453125 C 9 0.453125 7.925781 0.335938 6.875 0.109375 C 5.820312 -0.109375 4.941406 -0.382812 4.234375 -0.71875 C 3.535156 -1.050781 2.898438 -1.378906 2.328125 -1.703125 C 1.765625 -2.023438 1.351562 -2.296875 1.09375 -2.515625 L 0.703125 -2.84375 L 3.546875 -7.640625 C 3.785156 -7.429688 4.117188 -7.171875 4.546875 -6.859375 C 4.972656 -6.546875 5.722656 -6.125 6.796875 -5.59375 C 7.878906 -5.070312 8.835938 -4.8125 9.671875 -4.8125 C 12.066406 -4.8125 13.265625 -5.628906 13.265625 -7.265625 C 13.265625 -7.609375 13.175781 -7.925781 13 -8.21875 C 12.832031 -8.519531 12.53125 -8.816406 12.09375 -9.109375 C 11.664062 -9.398438 11.285156 -9.628906 10.953125 -9.796875 C 10.617188 -9.972656 10.070312 -10.238281 9.3125 -10.59375 C 8.5625 -10.945312 8.003906 -11.210938 7.640625 -11.390625 C 6.117188 -12.140625 4.941406 -13.070312 4.109375 -14.1875 C 3.285156 -15.3125 2.875 -16.519531 2.875 -17.8125 C 2.875 -20.050781 3.703125 -21.882812 5.359375 -23.3125 C 7.015625 -24.738281 8.90625 -25.453125 11.03125 -25.453125 Z M 11.03125 -25.453125 "/></g></g></g><g fill="#000000" fill-opacity="1"><g transform="translate(44.068754, 85.135165)"><g><path d="M 9 -7.1875 C 9.125 -7.1875 9.238281 -7.132812 9.34375 -7.03125 C 9.457031 -6.9375 9.515625 -6.8125 9.515625 -6.65625 C 9.515625 -6.601562 9.503906 -6.546875 9.484375 -6.484375 L 7.375 -0.3125 C 7.34375 -0.207031 7.285156 -0.128906 7.203125 -0.078125 C 7.117188 -0.0351562 7.023438 -0.0078125 6.921875 0 C 6.828125 0 6.734375 -0.0234375 6.640625 -0.078125 C 6.554688 -0.128906 6.492188 -0.207031 6.453125 -0.3125 L 4.859375 -4.046875 L 3.28125 -0.3125 C 3.238281 -0.207031 3.171875 -0.128906 3.078125 -0.078125 C 2.992188 -0.0234375 2.898438 0 2.796875 0 C 2.703125 -0.0078125 2.613281 -0.0390625 2.53125 -0.09375 C 2.445312 -0.144531 2.394531 -0.21875 2.375 -0.3125 L 0.25 -6.484375 C 0.226562 -6.546875 0.21875 -6.601562 0.21875 -6.65625 C 0.21875 -6.8125 0.273438 -6.9375 0.390625 -7.03125 C 0.503906 -7.132812 0.625 -7.1875 0.75 -7.1875 C 0.863281 -7.1875 0.960938 -7.15625 1.046875 -7.09375 C 1.140625 -7.039062 1.195312 -6.960938 1.21875 -6.859375 L 2.953125 -1.75 L 4.4375 -5.390625 C 4.476562 -5.484375 4.535156 -5.554688 4.609375 -5.609375 C 4.691406 -5.660156 4.785156 -5.6875 4.890625 -5.6875 C 4.992188 -5.6875 5.085938 -5.660156 5.171875 -5.609375 C 5.253906 -5.554688 5.316406 -5.484375 5.359375 -5.390625 L 6.796875 -1.75 L 8.515625 -6.859375 C 8.535156 -6.960938 8.585938 -7.039062 8.671875 -7.09375 C 8.765625 -7.15625 8.875 -7.1875 9 -7.1875 Z M 9 -7.1875 "/></g></g></g><g fill="#000000" fill-opacity="1"><g transform="translate(60.472237, 85.135165)"><g><path d="M 4.890625 -0.9375 C 5.035156 -0.9375 5.15625 -0.890625 5.25 -0.796875 C 5.34375 -0.703125 5.390625 -0.585938 5.390625 -0.453125 C 5.390625 -0.316406 5.34375 -0.207031 5.25 -0.125 C 5.15625 -0.0390625 5.035156 0 4.890625 0 L 1.34375 0 C 1.207031 0 1.085938 -0.046875 0.984375 -0.140625 C 0.890625 -0.234375 0.84375 -0.347656 0.84375 -0.484375 L 0.84375 -6.65625 C 0.84375 -6.789062 0.890625 -6.90625 0.984375 -7 C 1.085938 -7.101562 1.207031 -7.15625 1.34375 -7.15625 L 4.890625 -7.15625 C 5.035156 -7.15625 5.15625 -7.109375 5.25 -7.015625 C 5.34375 -6.929688 5.390625 -6.816406 5.390625 -6.671875 C 5.390625 -6.535156 5.34375 -6.425781 5.25 -6.34375 C 5.15625 -6.257812 5.035156 -6.21875 4.890625 -6.21875 L 1.859375 -6.21875 L 1.859375 -4.125 L 4.4375 -4.125 C 4.582031 -4.125 4.695312 -4.078125 4.78125 -3.984375 C 4.875 -3.898438 4.921875 -3.789062 4.921875 -3.65625 C 4.921875 -3.507812 4.875 -3.394531 4.78125 -3.3125 C 4.695312 -3.238281 4.582031 -3.203125 4.4375 -3.203125 L 1.859375 -3.203125 L 1.859375 -0.9375 Z M 4.890625 -0.9375 "/></g></g></g><g fill="#000000" fill-opacity="1"><g transform="translate(72.962345, 85.135165)"><g><path d="M 4.953125 -3.90625 C 5.328125 -3.769531 5.632812 -3.554688 5.875 -3.265625 C 6.113281 -2.972656 6.234375 -2.585938 6.234375 -2.109375 C 6.234375 -1.347656 6.015625 -0.804688 5.578125 -0.484375 C 5.140625 -0.160156 4.601562 0 3.96875 0 L 1.34375 0 C 1.207031 0 1.085938 -0.046875 0.984375 -0.140625 C 0.890625 -0.234375 0.84375 -0.347656 0.84375 -0.484375 L 0.84375 -6.65625 C 0.84375 -6.789062 0.890625 -6.90625 0.984375 -7 C 1.085938 -7.101562 1.207031 -7.15625 1.34375 -7.15625 L 3.96875 -7.15625 C 4.582031 -7.15625 5.050781 -7 5.375 -6.6875 C 5.695312 -6.382812 5.859375 -5.941406 5.859375 -5.359375 C 5.859375 -5.035156 5.78125 -4.742188 5.625 -4.484375 C 5.46875 -4.234375 5.242188 -4.039062 4.953125 -3.90625 Z M 4.8125 -5.21875 C 4.8125 -5.53125 4.722656 -5.769531 4.546875 -5.9375 C 4.378906 -6.101562 4.140625 -6.1875 3.828125 -6.1875 L 1.890625 -6.1875 L 1.890625 -4.203125 L 3.84375 -4.203125 C 4.125 -4.203125 4.351562 -4.289062 4.53125 -4.46875 C 4.71875 -4.644531 4.8125 -4.894531 4.8125 -5.21875 Z M 3.953125 -0.9375 C 4.328125 -0.9375 4.625 -1.03125 4.84375 -1.21875 C 5.070312 -1.414062 5.1875 -1.710938 5.1875 -2.109375 C 5.1875 -2.859375 4.757812 -3.234375 3.90625 -3.234375 L 1.890625 -3.234375 L 1.890625 -0.9375 Z M 3.953125 -0.9375 "/></g></g></g><g fill="#000000" fill-opacity="1"><g transform="translate(86.300523, 85.135165)"><g/></g></g><g fill="#000000" fill-opacity="1"><g transform="translate(95.796855, 85.135165)"><g><path d="M 3.015625 0.109375 C 2.515625 0.109375 2.070312 0.0390625 1.6875 -0.09375 C 1.3125 -0.238281 0.953125 -0.46875 0.609375 -0.78125 C 0.460938 -0.90625 0.390625 -1.046875 0.390625 -1.203125 C 0.390625 -1.328125 0.4375 -1.4375 0.53125 -1.53125 C 0.625 -1.632812 0.738281 -1.6875 0.875 -1.6875 C 0.988281 -1.6875 1.085938 -1.648438 1.171875 -1.578125 C 1.441406 -1.328125 1.71875 -1.140625 2 -1.015625 C 2.289062 -0.898438 2.625 -0.84375 3 -0.84375 C 3.425781 -0.84375 3.785156 -0.941406 4.078125 -1.140625 C 4.378906 -1.335938 4.53125 -1.582031 4.53125 -1.875 C 4.519531 -2.226562 4.367188 -2.503906 4.078125 -2.703125 C 3.785156 -2.898438 3.347656 -3.0625 2.765625 -3.1875 C 2.054688 -3.332031 1.515625 -3.566406 1.140625 -3.890625 C 0.765625 -4.222656 0.578125 -4.675781 0.578125 -5.25 C 0.578125 -5.65625 0.679688 -6.007812 0.890625 -6.3125 C 1.097656 -6.613281 1.390625 -6.84375 1.765625 -7 C 2.140625 -7.164062 2.5625 -7.25 3.03125 -7.25 C 3.457031 -7.25 3.859375 -7.179688 4.234375 -7.046875 C 4.609375 -6.910156 4.910156 -6.734375 5.140625 -6.515625 C 5.296875 -6.378906 5.375 -6.226562 5.375 -6.0625 C 5.375 -5.945312 5.328125 -5.835938 5.234375 -5.734375 C 5.140625 -5.640625 5.03125 -5.59375 4.90625 -5.59375 C 4.8125 -5.59375 4.734375 -5.625 4.671875 -5.6875 C 4.492188 -5.863281 4.25 -6.007812 3.9375 -6.125 C 3.625 -6.25 3.320312 -6.3125 3.03125 -6.3125 C 2.570312 -6.3125 2.207031 -6.21875 1.9375 -6.03125 C 1.675781 -5.84375 1.546875 -5.597656 1.546875 -5.296875 C 1.546875 -4.960938 1.675781 -4.707031 1.9375 -4.53125 C 2.207031 -4.351562 2.609375 -4.203125 3.140625 -4.078125 C 3.671875 -3.960938 4.101562 -3.828125 4.4375 -3.671875 C 4.78125 -3.515625 5.046875 -3.296875 5.234375 -3.015625 C 5.421875 -2.734375 5.515625 -2.367188 5.515625 -1.921875 C 5.515625 -1.523438 5.398438 -1.171875 5.171875 -0.859375 C 4.953125 -0.554688 4.648438 -0.316406 4.265625 -0.140625 C 3.890625 0.0234375 3.472656 0.109375 3.015625 0.109375 Z M 3.015625 0.109375 "/></g></g></g><g fill="#000000" fill-opacity="1"><g transform="translate(108.409585, 85.135165)"><g><path d="M 7.34375 -3.578125 C 7.34375 -2.890625 7.191406 -2.265625 6.890625 -1.703125 C 6.597656 -1.148438 6.191406 -0.707031 5.671875 -0.375 C 5.148438 -0.0507812 4.554688 0.109375 3.890625 0.109375 C 3.234375 0.109375 2.640625 -0.0507812 2.109375 -0.375 C 1.585938 -0.707031 1.175781 -1.148438 0.875 -1.703125 C 0.582031 -2.265625 0.4375 -2.890625 0.4375 -3.578125 C 0.4375 -4.265625 0.582031 -4.882812 0.875 -5.4375 C 1.175781 -6 1.585938 -6.441406 2.109375 -6.765625 C 2.640625 -7.085938 3.234375 -7.25 3.890625 -7.25 C 4.554688 -7.25 5.148438 -7.085938 5.671875 -6.765625 C 6.191406 -6.441406 6.597656 -6 6.890625 -5.4375 C 7.191406 -4.882812 7.34375 -4.265625 7.34375 -3.578125 Z M 6.296875 -3.578125 C 6.296875 -4.085938 6.191406 -4.546875 5.984375 -4.953125 C 5.785156 -5.367188 5.503906 -5.691406 5.140625 -5.921875 C 4.773438 -6.160156 4.359375 -6.28125 3.890625 -6.28125 C 3.429688 -6.28125 3.019531 -6.164062 2.65625 -5.9375 C 2.289062 -5.707031 2.003906 -5.382812 1.796875 -4.96875 C 1.585938 -4.5625 1.484375 -4.097656 1.484375 -3.578125 C 1.484375 -3.066406 1.585938 -2.601562 1.796875 -2.1875 C 2.003906 -1.78125 2.289062 -1.457031 2.65625 -1.21875 C 3.019531 -0.988281 3.429688 -0.875 3.890625 -0.875 C 4.359375 -0.875 4.773438 -0.988281 5.140625 -1.21875 C 5.503906 -1.457031 5.785156 -1.78125 5.984375 -2.1875 C 6.191406 -2.601562 6.296875 -3.066406 6.296875 -3.578125 Z M 6.296875 -3.578125 "/></g></g></g><g fill="#000000" fill-opacity="1"><g transform="translate(122.861488, 85.135165)"><g><path d="M 4.796875 -0.953125 C 4.929688 -0.953125 5.046875 -0.90625 5.140625 -0.8125 C 5.234375 -0.726562 5.28125 -0.613281 5.28125 -0.46875 C 5.28125 -0.332031 5.234375 -0.21875 5.140625 -0.125 C 5.046875 -0.0390625 4.929688 0 4.796875 0 L 1.34375 0 C 1.195312 0 1.078125 -0.046875 0.984375 -0.140625 C 0.890625 -0.234375 0.84375 -0.347656 0.84375 -0.484375 L 0.84375 -6.65625 C 0.84375 -6.789062 0.890625 -6.90625 0.984375 -7 C 1.085938 -7.101562 1.210938 -7.15625 1.359375 -7.15625 C 1.492188 -7.15625 1.609375 -7.101562 1.703125 -7 C 1.804688 -6.90625 1.859375 -6.789062 1.859375 -6.65625 L 1.859375 -0.953125 Z M 4.796875 -0.953125 "/></g></g></g><g fill="#000000" fill-opacity="1"><g transform="translate(135.147253, 85.135165)"><g><path d="M 5.921875 -7.15625 C 6.054688 -7.15625 6.164062 -7.109375 6.25 -7.015625 C 6.34375 -6.929688 6.390625 -6.816406 6.390625 -6.671875 L 6.390625 -2.75 C 6.390625 -2.207031 6.269531 -1.722656 6.03125 -1.296875 C 5.789062 -0.867188 5.460938 -0.53125 5.046875 -0.28125 C 4.628906 -0.0390625 4.15625 0.078125 3.625 0.078125 C 3.09375 0.078125 2.613281 -0.0390625 2.1875 -0.28125 C 1.769531 -0.53125 1.441406 -0.867188 1.203125 -1.296875 C 0.960938 -1.722656 0.84375 -2.207031 0.84375 -2.75 L 0.84375 -6.671875 C 0.84375 -6.816406 0.890625 -6.929688 0.984375 -7.015625 C 1.085938 -7.109375 1.210938 -7.15625 1.359375 -7.15625 C 1.484375 -7.15625 1.59375 -7.109375 1.6875 -7.015625 C 1.789062 -6.921875 1.84375 -6.804688 1.84375 -6.671875 L 1.84375 -2.75 C 1.84375 -2.394531 1.925781 -2.078125 2.09375 -1.796875 C 2.257812 -1.515625 2.476562 -1.296875 2.75 -1.140625 C 3.019531 -0.984375 3.3125 -0.90625 3.625 -0.90625 C 3.957031 -0.90625 4.257812 -0.984375 4.53125 -1.140625 C 4.8125 -1.296875 5.035156 -1.515625 5.203125 -1.796875 C 5.367188 -2.078125 5.453125 -2.394531 5.453125 -2.75 L 5.453125 -6.671875 C 5.453125 -6.816406 5.492188 -6.929688 5.578125 -7.015625 C 5.660156 -7.109375 5.773438 -7.15625 5.921875 -7.15625 Z M 5.921875 -7.15625 "/></g></g></g><g fill="#000000" fill-opacity="1"><g transform="translate(149.047402, 85.135165)"><g><path d="M 5.484375 -7.15625 C 5.628906 -7.15625 5.75 -7.109375 5.84375 -7.015625 C 5.9375 -6.929688 5.984375 -6.820312 5.984375 -6.6875 C 5.984375 -6.539062 5.9375 -6.425781 5.84375 -6.34375 C 5.75 -6.257812 5.628906 -6.21875 5.484375 -6.21875 L 3.671875 -6.21875 L 3.671875 -0.484375 C 3.671875 -0.347656 3.617188 -0.234375 3.515625 -0.140625 C 3.421875 -0.046875 3.296875 0 3.140625 0 C 2.992188 0 2.867188 -0.046875 2.765625 -0.140625 C 2.671875 -0.234375 2.625 -0.347656 2.625 -0.484375 L 2.625 -6.21875 L 0.8125 -6.21875 C 0.675781 -6.21875 0.5625 -6.257812 0.46875 -6.34375 C 0.375 -6.4375 0.328125 -6.550781 0.328125 -6.6875 C 0.328125 -6.820312 0.375 -6.929688 0.46875 -7.015625 C 0.5625 -7.109375 0.675781 -7.15625 0.8125 -7.15625 Z M 5.484375 -7.15625 "/></g></g></g><g fill="#000000" fill-opacity="1"><g transform="translate(162.017754, 85.135165)"><g><path d="M 1.859375 -0.5 C 1.859375 -0.351562 1.804688 -0.234375 1.703125 -0.140625 C 1.597656 -0.046875 1.476562 0 1.34375 0 C 1.195312 0 1.078125 -0.046875 0.984375 -0.140625 C 0.890625 -0.234375 0.84375 -0.351562 0.84375 -0.5 L 0.84375 -6.65625 C 0.84375 -6.789062 0.890625 -6.90625 0.984375 -7 C 1.085938 -7.101562 1.210938 -7.15625 1.359375 -7.15625 C 1.492188 -7.15625 1.609375 -7.101562 1.703125 -7 C 1.804688 -6.90625 1.859375 -6.789062 1.859375 -6.65625 Z M 1.859375 -0.5 "/></g></g></g><g fill="#000000" fill-opacity="1"><g transform="translate(171.39148, 85.135165)"><g><path d="M 7.34375 -3.578125 C 7.34375 -2.890625 7.191406 -2.265625 6.890625 -1.703125 C 6.597656 -1.148438 6.191406 -0.707031 5.671875 -0.375 C 5.148438 -0.0507812 4.554688 0.109375 3.890625 0.109375 C 3.234375 0.109375 2.640625 -0.0507812 2.109375 -0.375 C 1.585938 -0.707031 1.175781 -1.148438 0.875 -1.703125 C 0.582031 -2.265625 0.4375 -2.890625 0.4375 -3.578125 C 0.4375 -4.265625 0.582031 -4.882812 0.875 -5.4375 C 1.175781 -6 1.585938 -6.441406 2.109375 -6.765625 C 2.640625 -7.085938 3.234375 -7.25 3.890625 -7.25 C 4.554688 -7.25 5.148438 -7.085938 5.671875 -6.765625 C 6.191406 -6.441406 6.597656 -6 6.890625 -5.4375 C 7.191406 -4.882812 7.34375 -4.265625 7.34375 -3.578125 Z M 6.296875 -3.578125 C 6.296875 -4.085938 6.191406 -4.546875 5.984375 -4.953125 C 5.785156 -5.367188 5.503906 -5.691406 5.140625 -5.921875 C 4.773438 -6.160156 4.359375 -6.28125 3.890625 -6.28125 C 3.429688 -6.28125 3.019531 -6.164062 2.65625 -5.9375 C 2.289062 -5.707031 2.003906 -5.382812 1.796875 -4.96875 C 1.585938 -4.5625 1.484375 -4.097656 1.484375 -3.578125 C 1.484375 -3.066406 1.585938 -2.601562 1.796875 -2.1875 C 2.003906 -1.78125 2.289062 -1.457031 2.65625 -1.21875 C 3.019531 -0.988281 3.429688 -0.875 3.890625 -0.875 C 4.359375 -0.875 4.773438 -0.988281 5.140625 -1.21875 C 5.503906 -1.457031 5.785156 -1.78125 5.984375 -2.1875 C 6.191406 -2.601562 6.296875 -3.066406 6.296875 -3.578125 Z M 6.296875 -3.578125 "/></g></g></g><g fill="#000000" fill-opacity="1"><g transform="translate(185.84339, 85.135165)"><g><path d="M 6.1875 -7.15625 C 6.320312 -7.15625 6.425781 -7.109375 6.5 -7.015625 C 6.582031 -6.929688 6.625 -6.828125 6.625 -6.703125 L 6.625 -0.5 C 6.625 -0.351562 6.578125 -0.234375 6.484375 -0.140625 C 6.398438 -0.046875 6.285156 0 6.140625 0 C 6.066406 0 5.992188 -0.0078125 5.921875 -0.03125 C 5.847656 -0.0625 5.789062 -0.0976562 5.75 -0.140625 L 1.734375 -5.375 L 1.734375 -0.453125 C 1.734375 -0.316406 1.691406 -0.207031 1.609375 -0.125 C 1.523438 -0.0390625 1.414062 0 1.28125 0 C 1.15625 0 1.050781 -0.0390625 0.96875 -0.125 C 0.882812 -0.207031 0.84375 -0.316406 0.84375 -0.453125 L 0.84375 -6.65625 C 0.84375 -6.800781 0.890625 -6.921875 0.984375 -7.015625 C 1.078125 -7.109375 1.191406 -7.15625 1.328125 -7.15625 C 1.410156 -7.15625 1.488281 -7.140625 1.5625 -7.109375 C 1.632812 -7.078125 1.691406 -7.035156 1.734375 -6.984375 L 5.75 -1.734375 L 5.75 -6.703125 C 5.75 -6.828125 5.789062 -6.929688 5.875 -7.015625 C 5.957031 -7.109375 6.0625 -7.15625 6.1875 -7.15625 Z M 6.1875 -7.15625 "/></g></g></g><g fill="#000000" fill-opacity="1"><g transform="translate(199.988778, 85.135165)"><g><path d="M 3.015625 0.109375 C 2.515625 0.109375 2.070312 0.0390625 1.6875 -0.09375 C 1.3125 -0.238281 0.953125 -0.46875 0.609375 -0.78125 C 0.460938 -0.90625 0.390625 -1.046875 0.390625 -1.203125 C 0.390625 -1.328125 0.4375 -1.4375 0.53125 -1.53125 C 0.625 -1.632812 0.738281 -1.6875 0.875 -1.6875 C 0.988281 -1.6875 1.085938 -1.648438 1.171875 -1.578125 C 1.441406 -1.328125 1.71875 -1.140625 2 -1.015625 C 2.289062 -0.898438 2.625 -0.84375 3 -0.84375 C 3.425781 -0.84375 3.785156 -0.941406 4.078125 -1.140625 C 4.378906 -1.335938 4.53125 -1.582031 4.53125 -1.875 C 4.519531 -2.226562 4.367188 -2.503906 4.078125 -2.703125 C 3.785156 -2.898438 3.347656 -3.0625 2.765625 -3.1875 C 2.054688 -3.332031 1.515625 -3.566406 1.140625 -3.890625 C 0.765625 -4.222656 0.578125 -4.675781 0.578125 -5.25 C 0.578125 -5.65625 0.679688 -6.007812 0.890625 -6.3125 C 1.097656 -6.613281 1.390625 -6.84375 1.765625 -7 C 2.140625 -7.164062 2.5625 -7.25 3.03125 -7.25 C 3.457031 -7.25 3.859375 -7.179688 4.234375 -7.046875 C 4.609375 -6.910156 4.910156 -6.734375 5.140625 -6.515625 C 5.296875 -6.378906 5.375 -6.226562 5.375 -6.0625 C 5.375 -5.945312 5.328125 -5.835938 5.234375 -5.734375 C 5.140625 -5.640625 5.03125 -5.59375 4.90625 -5.59375 C 4.8125 -5.59375 4.734375 -5.625 4.671875 -5.6875 C 4.492188 -5.863281 4.25 -6.007812 3.9375 -6.125 C 3.625 -6.25 3.320312 -6.3125 3.03125 -6.3125 C 2.570312 -6.3125 2.207031 -6.21875 1.9375 -6.03125 C 1.675781 -5.84375 1.546875 -5.597656 1.546875 -5.296875 C 1.546875 -4.960938 1.675781 -4.707031 1.9375 -4.53125 C 2.207031 -4.351562 2.609375 -4.203125 3.140625 -4.078125 C 3.671875 -3.960938 4.101562 -3.828125 4.4375 -3.671875 C 4.78125 -3.515625 5.046875 -3.296875 5.234375 -3.015625 C 5.421875 -2.734375 5.515625 -2.367188 5.515625 -1.921875 C 5.515625 -1.523438 5.398438 -1.171875 5.171875 -0.859375 C 4.953125 -0.554688 4.648438 -0.316406 4.265625 -0.140625 C 3.890625 0.0234375 3.472656 0.109375 3.015625 0.109375 Z M 3.015625 0.109375 "/></g></g></g></svg>