<svg xmlns="http://www.w3.org/2000/svg" viewBox="0 0 178.67 74.84"><g id="Layer_2" data-name="Layer 2"><g id="Layer_1-2" data-name="Layer 1"><path d="M18.44,44.9q-7.74,0-12.65-6.71v5.87H1.73V0H5.79V17.71a16,16,0,0,1,12.77-6.27,15.63,15.63,0,0,1,8.27,2.27,16.26,16.26,0,0,1,5.9,6.14,16.82,16.82,0,0,1,2.17,8.34,16.87,16.87,0,0,1-8.15,14.44A15.87,15.87,0,0,1,18.44,44.9ZM18.13,41a12.07,12.07,0,0,0,6.47-1.77,12.41,12.41,0,0,0,4.48-4.73,13.05,13.05,0,0,0,1.63-6.38A12.6,12.6,0,0,0,29,21.71a13,13,0,0,0-4.54-4.77,11.74,11.74,0,0,0-6.35-1.79,12.82,12.82,0,0,0-6.19,1.56,12,12,0,0,0-4.67,4.48A12.88,12.88,0,0,0,5.5,28a13.41,13.41,0,0,0,1.65,6.62,12.13,12.13,0,0,0,4.54,4.67A12.49,12.49,0,0,0,18.13,41Z"/><path d="M40.29,0V44.06H36.22V0Z"/><path d="M58,44.83a15.51,15.51,0,0,1-8.25-2.27,16.45,16.45,0,0,1-5.88-6.12,17,17,0,0,1-2.14-8.36,16.36,16.36,0,0,1,2.16-8.29,16.7,16.7,0,0,1,6-6.08,15.76,15.76,0,0,1,8.27-2.27,15.12,15.12,0,0,1,7.13,1.69,15.62,15.62,0,0,1,5.56,4.95V12.27h4V44.06h-4V38.6A17.09,17.09,0,0,1,65,43.29,16,16,0,0,1,58,44.83Zm.41-3.7a12.89,12.89,0,0,0,6.23-1.59,12.21,12.21,0,0,0,4.71-4.48,12.73,12.73,0,0,0,1.77-6.75,13,13,0,0,0-1.69-6.58,12.35,12.35,0,0,0-10.95-6.35A12.16,12.16,0,0,0,52,17.15a12.58,12.58,0,0,0-4.52,4.7,13.24,13.24,0,0,0,0,12.73A12.72,12.72,0,0,0,52,39.33,11.71,11.71,0,0,0,58.36,41.13Z"/><path d="M82.8,12.27V18q5-6.53,11.91-6.52a11.65,11.65,0,0,1,6.21,1.64,10.72,10.72,0,0,1,4.13,5,20.49,20.49,0,0,1,1.45,8.17V44.06h-4.06V26.75c0-3.86-.68-6.76-2-8.69s-3.49-2.91-6.48-2.91a10,10,0,0,0-5.48,1.62,11.53,11.53,0,0,0-4.1,4.69,16.07,16.07,0,0,0-1.56,7.33V44.06H78.73V12.27Z"/><path d="M109.87,0h4.06V25.08L128.6,12.27h6.06L117.22,27.42l18.46,16.64h-5.81L113.93,29.75V44.06h-4.06Z"/><path d="M16.81,74.84a17.06,17.06,0,0,1-8.68-2.21,15.84,15.84,0,0,1-6-6,17.9,17.9,0,0,1,0-17.05,15.67,15.67,0,0,1,6.08-6,17.49,17.49,0,0,1,8.69-2.18,18.67,18.67,0,0,1,8.29,1.83,15.47,15.47,0,0,1,6,5l-3,2.59a15.48,15.48,0,0,0-5.06-4.13,14.17,14.17,0,0,0-6.44-1.4A12.46,12.46,0,0,0,10.31,47a12.19,12.19,0,0,0-4.48,4.59,12.87,12.87,0,0,0-1.64,6.5,13.62,13.62,0,0,0,1.6,6.64,11.54,11.54,0,0,0,4.52,4.54,13.07,13.07,0,0,0,6.5,1.63,14.21,14.21,0,0,0,11.44-5.4l3.06,2.4A18,18,0,0,1,25,73,18.33,18.33,0,0,1,16.81,74.84Z"/><path d="M47.65,74.77A15.51,15.51,0,0,1,39.4,72.5a16.53,16.53,0,0,1-5.88-6.12A17,17,0,0,1,31.38,58a16.46,16.46,0,0,1,2.16-8.29,16.7,16.7,0,0,1,6-6.08,15.76,15.76,0,0,1,8.27-2.27,15.24,15.24,0,0,1,7.13,1.68,15.75,15.75,0,0,1,5.56,5V42.21h4V74h-4V68.54a17.09,17.09,0,0,1-5.81,4.69A16,16,0,0,1,47.65,74.77Zm.41-3.71a12.88,12.88,0,0,0,6.23-1.58A12.21,12.21,0,0,0,59,65a12.73,12.73,0,0,0,1.77-6.75,12.92,12.92,0,0,0-1.69-6.58,12.38,12.38,0,0,0-10.95-6.36,12.17,12.17,0,0,0-6.44,1.78,12.58,12.58,0,0,0-4.52,4.7,13.24,13.24,0,0,0,0,12.73,12.72,12.72,0,0,0,4.52,4.75A11.7,11.7,0,0,0,48.06,71.06Z"/><path d="M72.5,42.21V47.9q5-6.52,11.91-6.52A11.65,11.65,0,0,1,90.62,43a10.72,10.72,0,0,1,4.13,5,20.31,20.31,0,0,1,1.46,8.17V74H92.14V56.69q0-5.79-2-8.69t-6.48-2.91a10,10,0,0,0-5.48,1.62,11.6,11.6,0,0,0-4.1,4.69,16.07,16.07,0,0,0-1.56,7.33V74H68.43V42.21Z"/><path d="M121.9,42.21h4.38L112.09,74h-1.44L96.34,42.21h4.38L111.36,66Z"/><path d="M141.66,74.77a15.51,15.51,0,0,1-8.25-2.27,16.53,16.53,0,0,1-5.88-6.12A17,17,0,0,1,125.39,58a16.46,16.46,0,0,1,2.16-8.29,16.7,16.7,0,0,1,6-6.08,15.76,15.76,0,0,1,8.27-2.27,15.24,15.24,0,0,1,7.13,1.68,15.75,15.75,0,0,1,5.56,5V42.21h4V74h-4V68.54a17.09,17.09,0,0,1-5.81,4.69A16,16,0,0,1,141.66,74.77Zm.41-3.71a12.88,12.88,0,0,0,6.23-1.58A12.21,12.21,0,0,0,153,65a12.73,12.73,0,0,0,1.77-6.75,12.92,12.92,0,0,0-1.69-6.58,12.38,12.38,0,0,0-11-6.36,12.17,12.17,0,0,0-6.44,1.78,12.58,12.58,0,0,0-4.52,4.7,13.24,13.24,0,0,0,0,12.73,12.72,12.72,0,0,0,4.52,4.75A11.7,11.7,0,0,0,142.07,71.06Z"/><path d="M169.09,74.84a12.13,12.13,0,0,1-5.21-1.19,11.39,11.39,0,0,1-4.19-3.36l2.57-2.93c2.12,2.36,4.34,3.54,6.64,3.54a6.23,6.23,0,0,0,2.9-.69A5.84,5.84,0,0,0,174,68.29a4.7,4.7,0,0,0,.81-2.66,4.57,4.57,0,0,0-.81-2.75,7.6,7.6,0,0,0-2.61-2.11q-3.77-2-5.75-3.35a11.62,11.62,0,0,1-3.23-3.17,7.84,7.84,0,0,1-1.25-4.44,8.24,8.24,0,0,1,1.17-4.37,8,8,0,0,1,3.17-3,9.06,9.06,0,0,1,4.39-1.08,9.71,9.71,0,0,1,4.54,1.08,17.15,17.15,0,0,1,4.27,3.23L176,48.38a12.44,12.44,0,0,0-3.09-2.27,7,7,0,0,0-3.31-.8,4.92,4.92,0,0,0-2.39.59,4.62,4.62,0,0,0-1.75,1.52,3.68,3.68,0,0,0-.65,2.14,4.41,4.41,0,0,0,1,2.84,9.51,9.51,0,0,0,2.94,2.27,65.61,65.61,0,0,1,5.77,3.44,11.1,11.1,0,0,1,3,3.08,7.65,7.65,0,0,1,1.12,4.25,9.54,9.54,0,0,1-1.2,4.69,9,9,0,0,1-3.38,3.43A9.74,9.74,0,0,1,169.09,74.84Z"/></g></g></svg>