<svg xmlns="http://www.w3.org/2000/svg" viewBox="0 0 23 13"><defs><style>.cls-1{fill:#157efb;fill-rule:evenodd;}</style></defs><g id="Layer_2" data-name="Layer 2"><g id="Layer_1-2" data-name="Layer 1"><g id="Page-1"><g id="icon-12-file-css"><path id="file-css" class="cls-1" d="M3,0A3,3,0,0,0,0,3v7a3,3,0,0,0,3,3H20a3,3,0,0,0,3-3V3a3,3,0,0,0-3-3ZM8,8a2,2,0,0,1-2,2H5A2,2,0,0,1,3,8V5A2,2,0,0,1,5,3H6A2,2,0,0,1,8,5H7A1,1,0,0,0,6,4H5A1,1,0,0,0,4,5V8A1,1,0,0,0,5,9H6A1,1,0,0,0,7,8Zm3-5a2,2,0,0,0,0,4h1a1,1,0,1,1,0,2H11a1,1,0,0,1-1-1H9a2,2,0,0,0,2,2h1a2,2,0,0,0,0-4H11a1,1,0,1,1,0-2h1a1,1,0,0,1,1,1h1a2,2,0,0,0-2-2Zm6,0a2,2,0,0,0,0,4h1a1,1,0,1,1,0,2H17a1,1,0,0,1-1-1H15a2,2,0,0,0,2,2h1a2,2,0,0,0,0-4H17a1,1,0,1,1,0-2h1a1,1,0,0,1,1,1h1a2,2,0,0,0-2-2Z"/></g></g></g></g></svg>